<?xml version="1.0" encoding="utf-8"?>
<!-- Generator: Adobe Illustrator 23.0.1, SVG Export Plug-In . SVG Version: 6.00 Build 0)  -->
<!DOCTYPE svg PUBLIC "-//W3C//DTD SVG 1.1//EN" "http://www.w3.org/Graphics/SVG/1.1/DTD/svg11.dtd" [
	<!ENTITY ns_extend "http://ns.adobe.com/Extensibility/1.0/">
	<!ENTITY ns_ai "http://ns.adobe.com/AdobeIllustrator/10.0/">
	<!ENTITY ns_graphs "http://ns.adobe.com/Graphs/1.0/">
	<!ENTITY ns_vars "http://ns.adobe.com/Variables/1.0/">
	<!ENTITY ns_imrep "http://ns.adobe.com/ImageReplacement/1.0/">
	<!ENTITY ns_sfw "http://ns.adobe.com/SaveForWeb/1.0/">
	<!ENTITY ns_custom "http://ns.adobe.com/GenericCustomNamespace/1.0/">
	<!ENTITY ns_adobe_xpath "http://ns.adobe.com/XPath/1.0/">
]>
<svg version="1.1" id="Livello_1" xmlns:x="&ns_extend;" xmlns:i="&ns_ai;" xmlns:graph="&ns_graphs;"
	 xmlns="http://www.w3.org/2000/svg" xmlns:xlink="http://www.w3.org/1999/xlink" x="0px" y="0px" viewBox="0 0 343.174 500"
	 enable-background="new 0 0 343.174 500" xml:space="preserve">
<metadata>
	<sfw  xmlns="&ns_sfw;">
		<slices></slices>
		<sliceSourceBounds  bottomLeftOrigin="true" height="500" width="343.174" x="-283.511" y="-91.301"></sliceSourceBounds>
	</sfw>
</metadata>
<g>
	<rect fill="#FFFFFF" width="343.174" height="500"/>
	<rect x="3.692" y="3.698" fill="#091C3E" width="335.789" height="492.61"/>
	<path fill="#06C167" d="M178.417,393.786h26.764v6.55h-19.538v9.296h18.991v6.332h-18.991v9.454h19.538v6.55h-26.764V393.786z
		 M279.093,432.697c8.208,0,12.835-3.933,12.835-9.325c0-3.845-2.74-6.714-8.472-7.961l-6.056-1.235
		c-3.516-0.653-4.621-1.311-4.621-2.616c0-1.699,1.693-2.74,4.821-2.74c3.381,0,5.891,0.912,6.544,4.039h7.103
		c-0.388-5.891-4.627-9.784-13.217-9.784c-7.426,0-12.641,3.063-12.641,9.002c0,4.11,2.869,6.779,9.06,8.084l6.767,1.564
		c2.675,0.523,3.387,1.246,3.387,2.352c0,1.764-2.017,2.869-5.28,2.869c-4.098,0-6.444-0.912-7.349-4.039h-7.138
		C265.876,428.787,270.239,432.697,279.093,432.697 M262.772,431.968h-7.685c-4.815,0-7.491-2.999-7.491-6.785v-14.999h-5.403
		v-6.391h5.427v-8.02h7.144v8.02h8.008v6.391h-8.008v13.17c0,1.499,1.041,2.222,2.669,2.222h5.339V431.968z M231.992,403.822v2.54
		c-2.516-2.128-5.703-3.287-8.996-3.275c-8.173-0.177-14.94,6.315-15.111,14.487c-0.171,8.178,6.315,14.946,14.487,15.116
		c0.212,0.006,0.417,0.006,0.623,0c3.293,0.018,6.485-1.147,8.996-3.269v2.546h7.12v-28.163L231.992,403.822z M223.59,426.511
		c-4.757,0.053-8.655-3.757-8.708-8.514c-0.059-4.756,3.757-8.655,8.508-8.707c4.757-0.053,8.655,3.757,8.714,8.514v0.1
		c0.041,4.704-3.734,8.549-8.437,8.596h-0.088L223.59,426.511z"/>
	<path fill="#FFFFFF" d="M95.865,360.081H78.374v-28.945H69.19v36.595h26.676V360.081z M111.664,331.136h-9.184v36.6h9.184V331.136z
		 M189.28,352.326c0,4.057-2.405,8.067-8.255,8.067c-5.791,0-8.143-4.01-8.143-8.067v-21.19h-9.184v20.514
		c0,10.877,6.944,16.551,17.327,16.551c10.495,0,17.439-5.674,17.439-16.551v-20.514h-9.184V352.326z M217.596,352.678h14.311
		v-7.226h-14.311v-6.615h17.58v-7.702h-26.764v36.595h27.275v-7.65h-18.092V352.678z M268.649,331.136l-13.417,7.355l1.817,7.737
		l8.102-4.28v25.782h8.802v-36.595H268.649z M147.159,418.077c0-8.284-5.897-14.475-13.87-14.475
		c-7.896,0.047-14.252,6.491-14.199,14.387v0.088c0,8.279,6.385,14.54,14.717,14.54c4.721,0.088,9.19-2.128,11.983-5.938
		l-3.969-2.905c-1.846,2.581-4.845,4.086-8.014,4.039c-4.598-0.018-8.496-3.398-9.172-7.949h22.536L147.159,418.077z
		 M124.758,415.531c0.97-4.239,4.363-7.109,8.467-7.109c4.104,0,7.485,2.869,8.402,7.109H124.758z M75.716,417.354
		c0,6.068-4.098,10.113-9.378,10.113c-5.356,0-9.284-3.98-9.284-10.078v-23.577h-5.768v23.854c0,8.996,6.268,14.928,14.405,14.928
		c3.798,0.029,7.449-1.505,10.095-4.239v3.61h5.597v-38.153h-5.668V417.354z M102.398,403.602c-0.206-0.006-0.412-0.006-0.617,0
		h-0.012c-3.692,0-7.226,1.476-9.825,4.104v-13.894h-5.468v38.153h5.403v-3.522c2.616,2.646,6.179,4.151,9.901,4.175
		c8.014,0.164,14.646-6.191,14.817-14.199C116.767,410.404,110.412,403.766,102.398,403.602 M110.952,418.142
		c0.006,5.274-4.263,9.554-9.537,9.56h-0.041v0.029c-5.315,0.024-9.637-4.263-9.666-9.578c-0.024-5.309,4.263-9.643,9.578-9.66
		c5.309-0.029,9.637,4.257,9.666,9.566V418.142z M156.337,407.576v-3.387h-5.403v27.775h5.474v-15.781
		c0-4.304,2.54-7.103,6.121-7.103h2.287v-5.092h-1.964C160.188,403.913,157.695,405.289,156.337,407.576 M140.633,368.2
		c8.255,0,12.847-2.916,14.699-4.533V348.78l-8.467,1.129v9.337c-1.588,0.782-3.498,1.147-5.686,1.147
		c-6.503,0-11.695-4.475-11.695-10.983c0-6.456,4.751-10.519,11.636-10.519c4.78,0,7.89,0.823,10.977,2.287l2.275-7.949
		c-2.669-1.434-7.508-2.563-13.523-2.563c-12.465,0-20.878,8.279-20.878,18.744C119.972,359.922,128.385,368.2,140.633,368.2"/>
	<path fill="#FFFFFF" d="M203.922,178.834c0,17.774-14.558,32.338-32.338,32.338c-17.774,0-32.332-14.564-32.332-32.338
		c0-17.78,14.558-32.338,32.332-32.338C189.364,146.496,203.922,161.054,203.922,178.834"/>
	<path fill="#CDFB0A" d="M237.945,98.311l-24.818,39.735c11.318,16.216,20.661,31.526,28.98,48.095
		c-10.883,21.337-23.113,42.104-37.576,61.23c-19.938,1.693-40.011,1.487-59.978,0.453l-24.982,39.993
		c38.253,3.604,72.877,4.474,108.455-0.982c25.482-31.226,45.179-63.511,62.712-100.453
		C277.185,154.532,258.494,125.539,237.945,98.311"/>
	<path fill="#CDFB0A" d="M101.066,171.53c10.889-21.314,23.024-42.192,37.582-61.23c19.932-1.67,40.016-1.488,59.984-0.459
		l24.977-39.993c-35.942-3.751-70.343-3.252-108.455,0.982c-24.312,29.257-46.872,65.669-62.718,100.676
		c13.864,31.768,31.209,59.496,52.799,87.853l24.824-39.734C118.828,203.038,109.439,188.093,101.066,171.53"/>
</g>
</svg>
